# xmcd
#
# Track frame offsets: 
#        200
#        15870
#        28195
#        36425
#        51070
#        62075
#        75747
#        91257
#        102645
#        122717
#        137165
#        153175
#
# Disc length: 2212 seconds
#
# Revision: 0
# Processed by: cddbd v1.4PL0 Copyright (c) Steve Scherf et al.
# Submitted via: ExactAudioCopy v0.90b3
#
DISCID=9608a20c
DTITLE=The Country Gentlemen Featuring Ricky Skaggs - The Country Gent
DTITLE=lemen Featuring Ricky Skaggs
DYEAR=1980
DGENRE=Bluegrass
TTITLE0=Travelling Kind
TTITLE1=Souvenirs
TTITLE2=The Leaves That Are Green
TTITLE3=Irish Spring
TTITLE4=Home In Louisiana
TTITLE5=City of New Orleans
TTITLE6=House of the Rising Sun
TTITLE7=Catfish John
TTITLE8=Heartaches
TTITLE9=One Morning in May
TTITLE10=Bringing Mary Home
TTITLE11=Welcome to New York
EXTD=
EXTT0=
EXTT1=
EXTT2=
EXTT3=
EXTT4=
EXTT5=
EXTT6=
EXTT7=
EXTT8=
EXTT9=
EXTT10=
EXTT11=
PLAYORDER=
